<svg width="263" height="51" viewBox="0 0 263 51" fill="none" xmlns="http://www.w3.org/2000/svg">
<path d="M31.7275 0.0135729C33.1794 -0.121349 34.5307 0.760968 34.9017 2.15457L36.2324 7.14934C19.3753 7.63665 7.97196 18.7428 7.25857 35.2876L2.14269 33.8869C0.730303 33.4999 -0.1475 32.14 0.0205138 30.7003C1.89652 14.6535 15.3834 1.53766 31.7275 0.0135729V0.0135729ZM36.9808 9.95517L45.952 43.6403C46.0172 43.885 46.016 44.1424 45.9484 44.3865C45.8807 44.6306 45.7492 44.8527 45.5669 45.0305C45.3847 45.2083 45.1582 45.3355 44.9103 45.3992C44.6624 45.4629 44.4019 45.4609 44.1551 45.3934L10.1031 36.0643C10.4868 20.5403 21.1615 10.1327 36.9808 9.95873V9.95517ZM34.501 36.9262C35.0697 36.9262 35.6255 36.7596 36.0983 36.4475C36.5711 36.1354 36.9397 35.6918 37.1573 35.1727C37.3749 34.6537 37.4318 34.0826 37.3209 33.5316C37.2099 32.9806 36.9361 32.4745 36.534 32.0772C36.1319 31.68 35.6196 31.4095 35.0619 31.2999C34.5042 31.1903 33.9261 31.2465 33.4008 31.4615C32.8754 31.6765 32.4264 32.0406 32.1105 32.5077C31.7945 32.9748 31.6259 33.524 31.6259 34.0857C31.6259 34.8391 31.9288 35.5616 32.468 36.0943C33.0072 36.6269 33.7385 36.9262 34.501 36.9262ZM30.1884 23.434C30.757 23.434 31.3129 23.2674 31.7857 22.9553C32.2585 22.6432 32.627 22.1996 32.8446 21.6806C33.0622 21.1615 33.1192 20.5904 33.0082 20.0394C32.8973 19.4884 32.6235 18.9823 32.2214 18.5851C31.8193 18.1878 31.307 17.9173 30.7493 17.8077C30.1916 17.6981 29.6135 17.7543 29.0881 17.9693C28.5628 18.1843 28.1137 18.5484 27.7978 19.0155C27.4819 19.4826 27.3133 20.0318 27.3133 20.5936C27.3133 21.3469 27.6162 22.0694 28.1554 22.6021C28.6946 23.1348 29.4259 23.434 30.1884 23.434ZM20.8443 32.6655C21.4129 32.6655 21.9688 32.4989 22.4416 32.1868C22.9144 31.8747 23.2829 31.4311 23.5006 30.9121C23.7182 30.393 23.7751 29.8219 23.6642 29.2709C23.5532 28.7199 23.2794 28.2138 22.8773 27.8166C22.4752 27.4193 21.9629 27.1488 21.4052 27.0392C20.8475 26.9296 20.2694 26.9858 19.7441 27.2008C19.2187 27.4158 18.7697 27.7799 18.4538 28.247C18.1378 28.7141 17.9692 29.2633 17.9692 29.8251C17.9692 30.5784 18.2721 31.3009 18.8113 31.8336C19.3505 32.3663 20.0818 32.6655 20.8443 32.6655Z" fill="#FFA580"/>
<path d="M58.4 18.648H61.832V18.888H61.712C61.584 18.888 61.472 18.936 61.376 19.032C61.28 19.112 61.2 19.216 61.136 19.344C61.072 19.472 61.016 19.608 60.968 19.752C60.936 19.896 60.92 20.024 60.92 20.136V26.568C60.632 26.68 60.304 26.776 59.936 26.856C59.568 26.936 59.184 27 58.784 27.048C58.384 27.112 57.976 27.16 57.56 27.192C57.144 27.224 56.76 27.24 56.408 27.24C54.968 27.24 53.712 27 52.64 26.52C51.568 26.04 50.68 25.416 49.976 24.648C49.272 23.864 48.744 22.984 48.392 22.008C48.056 21.032 47.888 20.048 47.888 19.056C47.888 18.064 48.056 17.08 48.392 16.104C48.744 15.128 49.272 14.256 49.976 13.488C50.696 12.72 51.592 12.104 52.664 11.64C53.752 11.16 55.04 10.92 56.528 10.92C57.088 10.92 57.608 10.968 58.088 11.064C58.568 11.16 58.992 11.248 59.36 11.328C59.568 11.376 59.744 11.424 59.888 11.472C60.048 11.504 60.184 11.52 60.296 11.52H60.512V14.064H60.272C60.176 13.568 59.984 13.168 59.696 12.864C59.424 12.56 59.104 12.328 58.736 12.168C58.368 12.008 57.976 11.904 57.56 11.856C57.16 11.792 56.784 11.76 56.432 11.76C55.232 11.76 54.192 11.976 53.312 12.408C52.432 12.824 51.712 13.368 51.152 14.04C50.592 14.712 50.176 15.472 49.904 16.32C49.632 17.152 49.496 17.984 49.496 18.816C49.496 19.744 49.672 20.664 50.024 21.576C50.376 22.472 50.872 23.28 51.512 24C52.152 24.704 52.92 25.28 53.816 25.728C54.728 26.16 55.736 26.376 56.84 26.376C57.144 26.376 57.52 26.344 57.968 26.28C58.416 26.2 58.864 26.032 59.312 25.776V20.136C59.312 20.024 59.296 19.896 59.264 19.752C59.232 19.608 59.176 19.472 59.096 19.344C59.032 19.216 58.952 19.112 58.856 19.032C58.76 18.936 58.648 18.888 58.52 18.888H58.4V18.648ZM75.0614 10.92C76.3094 10.92 77.4294 11.144 78.4214 11.592C79.4134 12.024 80.2534 12.616 80.9414 13.368C81.6454 14.104 82.1814 14.968 82.5494 15.96C82.9334 16.936 83.1254 17.96 83.1254 19.032C83.1254 20.232 82.9014 21.336 82.4534 22.344C82.0214 23.352 81.4214 24.216 80.6534 24.936C79.8854 25.656 78.9894 26.224 77.9654 26.64C76.9574 27.04 75.8774 27.24 74.7254 27.24C73.4934 27.24 72.3814 27.016 71.3894 26.568C70.4134 26.12 69.5814 25.528 68.8934 24.792C68.2214 24.056 67.7014 23.208 67.3334 22.248C66.9654 21.288 66.7814 20.288 66.7814 19.248C66.7814 18.224 66.9654 17.216 67.3334 16.224C67.7014 15.216 68.2374 14.32 68.9414 13.536C69.6614 12.752 70.5334 12.12 71.5574 11.64C72.5814 11.16 73.7494 10.92 75.0614 10.92ZM75.0374 26.4C76.1094 26.352 77.0454 26.112 77.8454 25.68C78.6614 25.232 79.3414 24.672 79.8854 24C80.4294 23.312 80.8294 22.56 81.0854 21.744C81.3574 20.928 81.4934 20.12 81.4934 19.32C81.4934 18.44 81.3334 17.552 81.0134 16.656C80.6934 15.76 80.2374 14.952 79.6454 14.232C79.0534 13.496 78.3414 12.904 77.5094 12.456C76.6934 11.992 75.7734 11.76 74.7494 11.76C73.7574 11.76 72.8694 11.984 72.0854 12.432C71.3014 12.864 70.6294 13.424 70.0694 14.112C69.5254 14.8 69.1094 15.568 68.8214 16.416C68.5334 17.264 68.3894 18.096 68.3894 18.912C68.3894 19.792 68.5574 20.68 68.8934 21.576C69.2294 22.456 69.6934 23.256 70.2854 23.976C70.8774 24.696 71.5734 25.28 72.3734 25.728C73.1894 26.176 74.0774 26.4 75.0374 26.4ZM98.0712 22.752C98.0712 23.552 97.9112 24.24 97.5912 24.816C97.2712 25.376 96.8552 25.832 96.3432 26.184C95.8472 26.536 95.2792 26.792 94.6392 26.952C94.0152 27.112 93.3912 27.192 92.7672 27.192C92.1272 27.192 91.5752 27.128 91.1112 27C90.6472 26.872 90.2232 26.752 89.8392 26.64C89.5832 26.56 89.3512 26.496 89.1432 26.448C88.9352 26.384 88.7272 26.352 88.5192 26.352V23.616H88.7592C88.7592 24.224 88.9112 24.712 89.2152 25.08C89.5352 25.432 89.9032 25.704 90.3192 25.896C90.7352 26.088 91.1512 26.216 91.5672 26.28C91.9832 26.328 92.2872 26.352 92.4792 26.352C93.1672 26.352 93.7592 26.256 94.2552 26.064C94.7512 25.856 95.1592 25.592 95.4792 25.272C95.7992 24.936 96.0312 24.568 96.1752 24.168C96.3352 23.768 96.4152 23.36 96.4152 22.944C96.4152 22.416 96.3032 21.976 96.0792 21.624C95.8552 21.256 95.5592 20.936 95.1912 20.664C94.8392 20.392 94.4312 20.16 93.9672 19.968C93.5032 19.776 93.0312 19.584 92.5512 19.392C92.0072 19.184 91.4712 18.968 90.9432 18.744C90.4152 18.52 89.9432 18.248 89.5272 17.928C89.1112 17.592 88.7752 17.2 88.5192 16.752C88.2632 16.288 88.1352 15.72 88.1352 15.048C88.1352 14.344 88.2712 13.736 88.5432 13.224C88.8152 12.696 89.1752 12.264 89.6232 11.928C90.0872 11.592 90.6072 11.344 91.1832 11.184C91.7752 11.008 92.3752 10.92 92.9832 10.92C93.3992 10.92 93.7912 10.952 94.1592 11.016C94.5272 11.064 94.8792 11.128 95.2152 11.208C95.4872 11.272 95.7512 11.328 96.0072 11.376C96.2632 11.408 96.5112 11.424 96.7512 11.424V13.896H96.5112C96.4792 13.064 96.1512 12.504 95.5272 12.216C94.9032 11.912 94.0392 11.76 92.9352 11.76C92.2952 11.76 91.7672 11.872 91.3512 12.096C90.9512 12.304 90.6312 12.568 90.3912 12.888C90.1512 13.192 89.9832 13.528 89.8872 13.896C89.8072 14.248 89.7672 14.56 89.7672 14.832C89.7672 15.28 89.8632 15.664 90.0552 15.984C90.2632 16.304 90.5352 16.584 90.8712 16.824C91.2072 17.064 91.5912 17.28 92.0232 17.472C92.4712 17.664 92.9352 17.848 93.4152 18.024C93.9592 18.232 94.5112 18.456 95.0712 18.696C95.6312 18.936 96.1272 19.232 96.5592 19.584C97.0072 19.936 97.3672 20.368 97.6392 20.88C97.9272 21.392 98.0712 22.016 98.0712 22.752ZM108.418 26.76H108.538V27H105.13V26.76H105.25C105.378 26.76 105.49 26.712 105.586 26.616C105.682 26.52 105.762 26.408 105.826 26.28C105.906 26.152 105.962 26.016 105.994 25.872C106.026 25.712 106.042 25.568 106.042 25.44V12.048H103.258C103.002 12.048 102.778 12.104 102.586 12.216C102.394 12.328 102.234 12.472 102.106 12.648C101.978 12.808 101.882 12.992 101.818 13.2C101.754 13.392 101.722 13.584 101.722 13.776H101.482V11.16H112.258V13.776H112.018C112.018 13.584 111.986 13.392 111.922 13.2C111.858 12.992 111.762 12.808 111.634 12.648C111.506 12.472 111.346 12.328 111.154 12.216C110.962 12.104 110.738 12.048 110.482 12.048H107.65V25.44C107.65 25.568 107.666 25.712 107.698 25.872C107.73 26.016 107.778 26.152 107.842 26.28C107.922 26.408 108.002 26.52 108.082 26.616C108.178 26.712 108.29 26.76 108.418 26.76ZM123.585 10.92C124.833 10.92 125.953 11.144 126.945 11.592C127.937 12.024 128.777 12.616 129.465 13.368C130.169 14.104 130.705 14.968 131.073 15.96C131.457 16.936 131.649 17.96 131.649 19.032C131.649 20.232 131.425 21.336 130.977 22.344C130.545 23.352 129.945 24.216 129.177 24.936C128.409 25.656 127.513 26.224 126.489 26.64C125.481 27.04 124.401 27.24 123.249 27.24C122.017 27.24 120.905 27.016 119.913 26.568C118.937 26.12 118.105 25.528 117.417 24.792C116.745 24.056 116.225 23.208 115.857 22.248C115.489 21.288 115.305 20.288 115.305 19.248C115.305 18.224 115.489 17.216 115.857 16.224C116.225 15.216 116.761 14.32 117.465 13.536C118.185 12.752 119.057 12.12 120.081 11.64C121.105 11.16 122.273 10.92 123.585 10.92ZM123.561 26.4C124.633 26.352 125.569 26.112 126.369 25.68C127.185 25.232 127.865 24.672 128.409 24C128.953 23.312 129.353 22.56 129.609 21.744C129.881 20.928 130.017 20.12 130.017 19.32C130.017 18.44 129.857 17.552 129.537 16.656C129.217 15.76 128.761 14.952 128.169 14.232C127.577 13.496 126.865 12.904 126.033 12.456C125.217 11.992 124.297 11.76 123.273 11.76C122.281 11.76 121.393 11.984 120.609 12.432C119.825 12.864 119.153 13.424 118.593 14.112C118.049 14.8 117.633 15.568 117.345 16.416C117.057 17.264 116.913 18.096 116.913 18.912C116.913 19.792 117.081 20.68 117.417 21.576C117.753 22.456 118.217 23.256 118.809 23.976C119.401 24.696 120.097 25.28 120.897 25.728C121.713 26.176 122.601 26.4 123.561 26.4ZM155.95 22.752C155.95 23.552 155.79 24.24 155.47 24.816C155.15 25.376 154.734 25.832 154.222 26.184C153.726 26.536 153.158 26.792 152.518 26.952C151.894 27.112 151.27 27.192 150.646 27.192C150.006 27.192 149.454 27.128 148.99 27C148.526 26.872 148.102 26.752 147.718 26.64C147.462 26.56 147.23 26.496 147.022 26.448C146.814 26.384 146.606 26.352 146.398 26.352V23.616H146.638C146.638 24.224 146.79 24.712 147.094 25.08C147.414 25.432 147.782 25.704 148.198 25.896C148.614 26.088 149.03 26.216 149.446 26.28C149.862 26.328 150.166 26.352 150.358 26.352C151.046 26.352 151.638 26.256 152.134 26.064C152.63 25.856 153.038 25.592 153.358 25.272C153.678 24.936 153.91 24.568 154.054 24.168C154.214 23.768 154.294 23.36 154.294 22.944C154.294 22.416 154.182 21.976 153.958 21.624C153.734 21.256 153.438 20.936 153.07 20.664C152.718 20.392 152.31 20.16 151.846 19.968C151.382 19.776 150.91 19.584 150.43 19.392C149.886 19.184 149.35 18.968 148.822 18.744C148.294 18.52 147.822 18.248 147.406 17.928C146.99 17.592 146.654 17.2 146.398 16.752C146.142 16.288 146.014 15.72 146.014 15.048C146.014 14.344 146.15 13.736 146.422 13.224C146.694 12.696 147.054 12.264 147.502 11.928C147.966 11.592 148.486 11.344 149.062 11.184C149.654 11.008 150.254 10.92 150.862 10.92C151.278 10.92 151.67 10.952 152.038 11.016C152.406 11.064 152.758 11.128 153.094 11.208C153.366 11.272 153.63 11.328 153.886 11.376C154.142 11.408 154.39 11.424 154.63 11.424V13.896H154.39C154.358 13.064 154.03 12.504 153.406 12.216C152.782 11.912 151.918 11.76 150.814 11.76C150.174 11.76 149.646 11.872 149.23 12.096C148.83 12.304 148.51 12.568 148.27 12.888C148.03 13.192 147.862 13.528 147.766 13.896C147.686 14.248 147.646 14.56 147.646 14.832C147.646 15.28 147.742 15.664 147.934 15.984C148.142 16.304 148.414 16.584 148.75 16.824C149.086 17.064 149.47 17.28 149.902 17.472C150.35 17.664 150.814 17.848 151.294 18.024C151.838 18.232 152.39 18.456 152.95 18.696C153.51 18.936 154.006 19.232 154.438 19.584C154.886 19.936 155.246 20.368 155.518 20.88C155.806 21.392 155.95 22.016 155.95 22.752ZM161.115 11.16H164.523V11.4H164.403C164.275 11.4 164.163 11.448 164.067 11.544C163.971 11.624 163.883 11.728 163.803 11.856C163.739 11.984 163.691 12.12 163.659 12.264C163.627 12.408 163.611 12.536 163.611 12.648V22.128C163.611 22.752 163.675 23.328 163.803 23.856C163.931 24.384 164.147 24.84 164.451 25.224C164.755 25.608 165.155 25.912 165.651 26.136C166.147 26.344 166.755 26.448 167.475 26.448C168.275 26.448 168.915 26.32 169.395 26.064C169.875 25.808 170.243 25.48 170.499 25.08C170.755 24.664 170.923 24.2 171.003 23.688C171.083 23.176 171.123 22.672 171.123 22.176V12.648C171.123 12.536 171.107 12.408 171.075 12.264C171.043 12.12 170.987 11.984 170.907 11.856C170.843 11.728 170.763 11.624 170.667 11.544C170.571 11.448 170.467 11.4 170.355 11.4H170.235V11.16H172.851V11.4H172.731C172.603 11.4 172.491 11.448 172.395 11.544C172.315 11.624 172.235 11.728 172.155 11.856C172.091 11.984 172.043 12.12 172.011 12.264C171.979 12.408 171.963 12.536 171.963 12.648V22.104C171.963 23.144 171.835 24 171.579 24.672C171.323 25.328 170.971 25.848 170.523 26.232C170.075 26.616 169.547 26.88 168.939 27.024C168.347 27.168 167.715 27.24 167.043 27.24C166.323 27.24 165.651 27.16 165.027 27C164.419 26.856 163.891 26.592 163.443 26.208C162.995 25.824 162.643 25.304 162.387 24.648C162.131 23.976 162.003 23.136 162.003 22.128V12.648C162.003 12.536 161.987 12.408 161.955 12.264C161.923 12.12 161.867 11.984 161.787 11.856C161.723 11.728 161.643 11.624 161.547 11.544C161.451 11.448 161.347 11.4 161.235 11.4H161.115V11.16ZM178.227 11.16H181.635C183.411 11.16 184.755 11.504 185.667 12.192C186.595 12.864 187.059 13.824 187.059 15.072C187.059 15.744 186.899 16.344 186.579 16.872C186.259 17.4 185.835 17.848 185.307 18.216C184.795 18.568 184.211 18.84 183.555 19.032C182.915 19.224 182.275 19.32 181.635 19.32H180.723V25.44C180.723 25.568 180.739 25.712 180.771 25.872C180.803 26.016 180.851 26.152 180.915 26.28C180.995 26.408 181.075 26.52 181.155 26.616C181.251 26.712 181.363 26.76 181.491 26.76H181.611V27H178.227V26.76H178.347C178.459 26.76 178.563 26.712 178.659 26.616C178.755 26.52 178.835 26.408 178.899 26.28C178.963 26.152 179.011 26.016 179.043 25.872C179.075 25.712 179.091 25.568 179.091 25.44V12.648C179.091 12.424 179.027 12.168 178.899 11.88C178.771 11.592 178.587 11.432 178.347 11.4H178.227V11.16ZM180.723 12V18.48H181.443C182.083 18.48 182.651 18.392 183.147 18.216C183.659 18.04 184.083 17.808 184.419 17.52C184.755 17.232 185.011 16.904 185.187 16.536C185.363 16.168 185.451 15.792 185.451 15.408C185.451 14.944 185.371 14.512 185.211 14.112C185.067 13.696 184.819 13.336 184.467 13.032C184.131 12.712 183.683 12.464 183.123 12.288C182.563 12.096 181.875 12 181.059 12H180.723ZM195.487 26.76H195.607V27H192.223V26.76H192.343C192.455 26.76 192.559 26.712 192.655 26.616C192.751 26.52 192.831 26.408 192.895 26.28C192.975 26.152 193.031 26.016 193.063 25.872C193.095 25.712 193.111 25.568 193.111 25.44V12.648C193.111 12.536 193.095 12.408 193.063 12.264C193.031 12.12 192.975 11.984 192.895 11.856C192.831 11.728 192.751 11.624 192.655 11.544C192.559 11.448 192.455 11.4 192.343 11.4H192.223V11.16H196.399C197.999 11.16 199.231 11.472 200.095 12.096C200.975 12.72 201.415 13.64 201.415 14.856C201.415 15.464 201.311 16 201.103 16.464C200.911 16.912 200.647 17.304 200.311 17.64C199.975 17.96 199.575 18.224 199.111 18.432C198.663 18.624 198.183 18.768 197.671 18.864L199.399 21.504C199.815 22.144 200.239 22.776 200.671 23.4C201.103 24.008 201.527 24.64 201.943 25.296C202.055 25.456 202.175 25.624 202.303 25.8C202.447 25.976 202.591 26.136 202.735 26.28C202.895 26.424 203.055 26.544 203.215 26.64C203.391 26.72 203.567 26.76 203.743 26.76V27H202.711C202.071 27 201.543 26.848 201.127 26.544C200.727 26.224 200.391 25.856 200.119 25.44C199.399 24.384 198.679 23.312 197.959 22.224C197.255 21.136 196.551 20.064 195.847 19.008C195.671 18.992 195.479 18.976 195.271 18.96C195.079 18.928 194.895 18.896 194.719 18.864V25.44C194.719 25.568 194.735 25.712 194.767 25.872C194.799 26.016 194.847 26.152 194.911 26.28C194.991 26.408 195.071 26.52 195.151 26.616C195.247 26.712 195.359 26.76 195.487 26.76ZM194.719 11.976V18.072H194.839C194.967 18.088 195.167 18.104 195.439 18.12C195.727 18.12 196.079 18.12 196.495 18.12C196.831 18.12 197.183 18.072 197.551 17.976C197.935 17.864 198.287 17.688 198.607 17.448C198.943 17.192 199.215 16.864 199.423 16.464C199.647 16.064 199.759 15.56 199.759 14.952C199.759 14.344 199.639 13.848 199.399 13.464C199.175 13.08 198.855 12.776 198.439 12.552C198.039 12.328 197.551 12.176 196.975 12.096C196.399 12.016 195.767 11.976 195.079 11.976H194.719ZM208.303 26.76H208.423C208.551 26.76 208.663 26.72 208.759 26.64C208.855 26.544 208.935 26.432 208.999 26.304C209.079 26.176 209.135 26.04 209.167 25.896C209.215 25.752 209.239 25.616 209.239 25.488V12.648C209.239 12.536 209.215 12.408 209.167 12.264C209.135 12.12 209.079 11.984 208.999 11.856C208.935 11.728 208.855 11.624 208.759 11.544C208.663 11.448 208.551 11.4 208.423 11.4H208.303V11.16H217.543V13.392H217.303C217.271 13.024 217.127 12.704 216.871 12.432C216.615 12.144 216.215 12 215.671 12H210.847V18.072H214.831C215.199 18.072 215.503 17.96 215.743 17.736C215.999 17.512 216.127 17.248 216.127 16.944H216.367V19.944H216.127C216.127 19.656 216.007 19.408 215.767 19.2C215.527 18.992 215.215 18.888 214.831 18.888H210.847V26.16H216.103C216.407 26.16 216.671 26.088 216.895 25.944C217.119 25.8 217.303 25.632 217.447 25.44C217.607 25.232 217.719 25.016 217.783 24.792C217.863 24.552 217.903 24.352 217.903 24.192H218.143V27H208.303V26.76ZM235.984 26.76H236.104C236.216 26.76 236.32 26.712 236.416 26.616C236.512 26.52 236.592 26.408 236.656 26.28C236.736 26.152 236.792 26.016 236.824 25.872C236.856 25.712 236.872 25.568 236.872 25.44V12.816L230.68 27.264L224.8 13.56V25.44C224.8 25.568 224.816 25.712 224.848 25.872C224.88 26.016 224.928 26.152 224.992 26.28C225.072 26.408 225.16 26.52 225.256 26.616C225.352 26.712 225.464 26.76 225.592 26.76H225.712V27H223.096V26.76H223.216C223.328 26.76 223.432 26.712 223.528 26.616C223.624 26.52 223.704 26.408 223.768 26.28C223.832 26.152 223.88 26.016 223.912 25.872C223.944 25.712 223.96 25.568 223.96 25.44V12.648C223.96 12.536 223.944 12.408 223.912 12.264C223.88 12.12 223.832 11.984 223.768 11.856C223.704 11.728 223.624 11.624 223.528 11.544C223.432 11.448 223.328 11.4 223.216 11.4H223.096V11.16H225.544L231.112 24.288L236.68 11.16H239.392V11.4H239.272C239.144 11.4 239.032 11.448 238.936 11.544C238.84 11.624 238.752 11.728 238.672 11.856C238.608 11.984 238.56 12.12 238.528 12.264C238.496 12.408 238.48 12.536 238.48 12.648V25.44C238.48 25.568 238.496 25.712 238.528 25.872C238.56 26.016 238.608 26.152 238.672 26.28C238.752 26.408 238.84 26.52 238.936 26.616C239.032 26.712 239.144 26.76 239.272 26.76H239.392V27H235.984V26.76ZM252.936 10.92C254.184 10.92 255.304 11.144 256.296 11.592C257.288 12.024 258.128 12.616 258.816 13.368C259.52 14.104 260.056 14.968 260.424 15.96C260.808 16.936 261 17.96 261 19.032C261 20.232 260.776 21.336 260.328 22.344C259.896 23.352 259.296 24.216 258.528 24.936C257.76 25.656 256.864 26.224 255.84 26.64C254.832 27.04 253.752 27.24 252.6 27.24C251.368 27.24 250.256 27.016 249.264 26.568C248.288 26.12 247.456 25.528 246.768 24.792C246.096 24.056 245.576 23.208 245.208 22.248C244.84 21.288 244.656 20.288 244.656 19.248C244.656 18.224 244.84 17.216 245.208 16.224C245.576 15.216 246.112 14.32 246.816 13.536C247.536 12.752 248.408 12.12 249.432 11.64C250.456 11.16 251.624 10.92 252.936 10.92ZM252.912 26.4C253.984 26.352 254.92 26.112 255.72 25.68C256.536 25.232 257.216 24.672 257.76 24C258.304 23.312 258.704 22.56 258.96 21.744C259.232 20.928 259.368 20.12 259.368 19.32C259.368 18.44 259.208 17.552 258.888 16.656C258.568 15.76 258.112 14.952 257.52 14.232C256.928 13.496 256.216 12.904 255.384 12.456C254.568 11.992 253.648 11.76 252.624 11.76C251.632 11.76 250.744 11.984 249.96 12.432C249.176 12.864 248.504 13.424 247.944 14.112C247.4 14.8 246.984 15.568 246.696 16.416C246.408 17.264 246.264 18.096 246.264 18.912C246.264 19.792 246.432 20.68 246.768 21.576C247.104 22.456 247.568 23.256 248.16 23.976C248.752 24.696 249.448 25.28 250.248 25.728C251.064 26.176 251.952 26.4 252.912 26.4Z" fill="white"/>
<path d="M87.88 32.8H90.72C92.2 32.8 93.32 33.0867 94.08 33.66C94.8533 34.22 95.24 35.02 95.24 36.06C95.24 36.62 95.1067 37.12 94.84 37.56C94.5733 38 94.22 38.3733 93.78 38.68C93.3533 38.9733 92.8667 39.2 92.32 39.36C91.7867 39.52 91.2533 39.6 90.72 39.6H89.96V44.7C89.96 44.8067 89.9733 44.9267 90 45.06C90.0267 45.18 90.0667 45.2933 90.12 45.4C90.1867 45.5067 90.2533 45.6 90.32 45.68C90.4 45.76 90.4933 45.8 90.6 45.8H90.7V46H87.88V45.8H87.98C88.0733 45.8 88.16 45.76 88.24 45.68C88.32 45.6 88.3867 45.5067 88.44 45.4C88.4933 45.2933 88.5333 45.18 88.56 45.06C88.5867 44.9267 88.6 44.8067 88.6 44.7V34.04C88.6 33.8533 88.5467 33.64 88.44 33.4C88.3333 33.16 88.18 33.0267 87.98 33H87.88V32.8ZM89.96 33.5V38.9H90.56C91.0933 38.9 91.5667 38.8267 91.98 38.68C92.4067 38.5333 92.76 38.34 93.04 38.1C93.32 37.86 93.5333 37.5867 93.68 37.28C93.8267 36.9733 93.9 36.66 93.9 36.34C93.9 35.9533 93.8333 35.5933 93.7 35.26C93.58 34.9133 93.3733 34.6133 93.08 34.36C92.8 34.0933 92.4267 33.8867 91.96 33.74C91.4933 33.58 90.92 33.5 90.24 33.5H89.96ZM103.623 32.8H106.483V33H106.383C106.29 33 106.203 33.04 106.123 33.12C106.043 33.1867 105.976 33.2733 105.923 33.38C105.87 33.4733 105.823 33.5867 105.783 33.72C105.756 33.84 105.743 33.9467 105.743 34.04V44.7C105.743 44.8067 105.756 44.9267 105.783 45.06C105.81 45.18 105.85 45.2933 105.903 45.4C105.97 45.5067 106.036 45.6 106.103 45.68C106.183 45.76 106.276 45.8 106.383 45.8H106.483V46H103.623V45.8H103.723C103.83 45.8 103.923 45.7667 104.003 45.7C104.083 45.62 104.15 45.5267 104.203 45.42C104.27 45.3 104.316 45.18 104.343 45.06C104.37 44.9267 104.383 44.8067 104.383 44.7V34.04C104.383 33.9467 104.37 33.84 104.343 33.72C104.316 33.6 104.27 33.4867 104.203 33.38C104.15 33.2733 104.083 33.1867 104.003 33.12C103.923 33.04 103.83 33 103.723 33H103.623V32.8ZM114.446 46L121.086 33.5H116.446C116.233 33.5 116.046 33.5533 115.886 33.66C115.726 33.7533 115.593 33.88 115.486 34.04C115.38 34.1867 115.3 34.3533 115.246 34.54C115.193 34.7133 115.166 34.88 115.166 35.04H114.966V32.8H123.026L116.386 45.3H121.526C121.74 45.3 121.926 45.2533 122.086 45.16C122.246 45.0533 122.38 44.92 122.486 44.76C122.593 44.6 122.673 44.4333 122.726 44.26C122.78 44.0733 122.806 43.9 122.806 43.74H123.006V46H114.446ZM130.441 46L137.081 33.5H132.441C132.227 33.5 132.041 33.5533 131.881 33.66C131.721 33.7533 131.587 33.88 131.481 34.04C131.374 34.1867 131.294 34.3533 131.241 34.54C131.187 34.7133 131.161 34.88 131.161 35.04H130.961V32.8H139.021L132.381 45.3H137.521C137.734 45.3 137.921 45.2533 138.081 45.16C138.241 45.0533 138.374 44.92 138.481 44.76C138.587 44.6 138.667 44.4333 138.721 44.26C138.774 44.0733 138.801 43.9 138.801 43.74H139.001V46H130.441ZM154.635 45.8H154.735C155.055 45.8 155.215 45.6533 155.215 45.36C155.215 45.2533 155.195 45.14 155.155 45.02L153.355 40.16H149.855L148.115 44.94C148.075 45.0467 148.055 45.1467 148.055 45.24C148.055 45.4133 148.102 45.5533 148.195 45.66C148.289 45.7533 148.389 45.8 148.495 45.8H148.595V46H146.375V45.8H146.475C146.649 45.8 146.815 45.7 146.975 45.5C147.149 45.2867 147.289 45.04 147.395 44.76L151.975 32.56L156.455 44.64C156.549 44.9067 156.675 45.1667 156.835 45.42C157.009 45.6733 157.229 45.8 157.495 45.8H157.595V46H154.635V45.8ZM150.055 39.48H153.135L151.595 35.3L150.055 39.48ZM168.112 45.8H168.212V46H165.392V45.8H165.492C165.586 45.8 165.672 45.76 165.752 45.68C165.832 45.6 165.899 45.5067 165.952 45.4C166.019 45.2933 166.066 45.18 166.092 45.06C166.119 44.9267 166.132 44.8067 166.132 44.7V34.04C166.132 33.9467 166.119 33.84 166.092 33.72C166.066 33.6 166.019 33.4867 165.952 33.38C165.899 33.2733 165.832 33.1867 165.752 33.12C165.672 33.04 165.586 33 165.492 33H165.392V32.8H168.872C170.206 32.8 171.232 33.06 171.952 33.58C172.686 34.1 173.052 34.8667 173.052 35.88C173.052 36.3867 172.966 36.8333 172.792 37.22C172.632 37.5933 172.412 37.92 172.132 38.2C171.852 38.4667 171.519 38.6867 171.132 38.86C170.759 39.02 170.359 39.14 169.932 39.22L171.372 41.42C171.719 41.9533 172.072 42.48 172.432 43C172.792 43.5067 173.146 44.0333 173.492 44.58C173.586 44.7133 173.686 44.8533 173.792 45C173.912 45.1467 174.032 45.28 174.152 45.4C174.286 45.52 174.419 45.62 174.552 45.7C174.699 45.7667 174.846 45.8 174.992 45.8V46H174.132C173.599 46 173.159 45.8733 172.812 45.62C172.479 45.3533 172.199 45.0467 171.972 44.7C171.372 43.82 170.772 42.9267 170.172 42.02C169.586 41.1133 168.999 40.22 168.412 39.34C168.266 39.3267 168.106 39.3133 167.932 39.3C167.772 39.2733 167.619 39.2467 167.472 39.22V44.7C167.472 44.8067 167.486 44.9267 167.512 45.06C167.539 45.18 167.579 45.2933 167.632 45.4C167.699 45.5067 167.766 45.6 167.832 45.68C167.912 45.76 168.006 45.8 168.112 45.8ZM167.472 33.48V38.56H167.572C167.679 38.5733 167.846 38.5867 168.072 38.6C168.312 38.6 168.606 38.6 168.952 38.6C169.232 38.6 169.526 38.56 169.832 38.48C170.152 38.3867 170.446 38.24 170.712 38.04C170.992 37.8267 171.219 37.5533 171.392 37.22C171.579 36.8867 171.672 36.4667 171.672 35.96C171.672 35.4533 171.572 35.04 171.372 34.72C171.186 34.4 170.919 34.1467 170.572 33.96C170.239 33.7733 169.832 33.6467 169.352 33.58C168.872 33.5133 168.346 33.48 167.772 33.48H167.472ZM182.873 32.8H185.733V33H185.633C185.54 33 185.453 33.04 185.373 33.12C185.293 33.1867 185.226 33.2733 185.173 33.38C185.12 33.4733 185.073 33.5867 185.033 33.72C185.006 33.84 184.993 33.9467 184.993 34.04V44.7C184.993 44.8067 185.006 44.9267 185.033 45.06C185.06 45.18 185.1 45.2933 185.153 45.4C185.22 45.5067 185.286 45.6 185.353 45.68C185.433 45.76 185.526 45.8 185.633 45.8H185.733V46H182.873V45.8H182.973C183.08 45.8 183.173 45.7667 183.253 45.7C183.333 45.62 183.4 45.5267 183.453 45.42C183.52 45.3 183.566 45.18 183.593 45.06C183.62 44.9267 183.633 44.8067 183.633 44.7V34.04C183.633 33.9467 183.62 33.84 183.593 33.72C183.566 33.6 183.52 33.4867 183.453 33.38C183.4 33.2733 183.333 33.1867 183.253 33.12C183.173 33.04 183.08 33 182.973 33H182.873V32.8ZM201.896 45.8H201.996C202.316 45.8 202.476 45.6533 202.476 45.36C202.476 45.2533 202.456 45.14 202.416 45.02L200.616 40.16H197.116L195.376 44.94C195.336 45.0467 195.316 45.1467 195.316 45.24C195.316 45.4133 195.363 45.5533 195.456 45.66C195.55 45.7533 195.65 45.8 195.756 45.8H195.856V46H193.636V45.8H193.736C193.91 45.8 194.076 45.7 194.236 45.5C194.41 45.2867 194.55 45.04 194.656 44.76L199.236 32.56L203.716 44.64C203.81 44.9067 203.936 45.1667 204.096 45.42C204.27 45.6733 204.49 45.8 204.756 45.8H204.856V46H201.896V45.8ZM197.316 39.48H200.396L198.856 35.3L197.316 39.48Z" fill="#FFA580"/>
</svg>
